<mxfile host="Electron" modified="2023-06-07T16:20:27.654Z" agent="Mozilla/5.0 (Windows NT 10.0; Win64; x64) AppleWebKit/537.36 (KHTML, like Gecko) draw.io/21.2.8 Chrome/112.0.5615.165 Electron/24.2.0 Safari/537.36" etag="JgItpkyvlr_Q4d-b1pyk" version="21.2.8" type="device">
  <diagram name="Secrets Manager - Connections" id="eyTmbva28oI2vyMvv1o2">
    <mxGraphModel dx="978" dy="571" grid="1" gridSize="10" guides="1" tooltips="1" connect="1" arrows="1" fold="1" page="1" pageScale="1" pageWidth="1100" pageHeight="850" math="0" shadow="0">
      <root>
        <mxCell id="0" />
        <mxCell id="1" parent="0" />
        <mxCell id="TREJK7lmLjp65B2A7TYI-1" value="AWS Managed Airflow Cluster" style="swimlane;" vertex="1" parent="1">
          <mxGeometry x="70" y="150" width="370" height="310" as="geometry" />
        </mxCell>
        <mxCell id="TREJK7lmLjp65B2A7TYI-13" value="1. Requests connection named &quot;conn_name&quot;" style="edgeStyle=orthogonalEdgeStyle;rounded=0;orthogonalLoop=1;jettySize=auto;html=1;entryX=0.5;entryY=1;entryDx=0;entryDy=0;fontColor=#0000FF;" edge="1" parent="TREJK7lmLjp65B2A7TYI-1" source="TREJK7lmLjp65B2A7TYI-3" target="TREJK7lmLjp65B2A7TYI-5">
          <mxGeometry relative="1" as="geometry" />
        </mxCell>
        <mxCell id="TREJK7lmLjp65B2A7TYI-3" value="DAG" style="swimlane;whiteSpace=wrap;html=1;" vertex="1" parent="TREJK7lmLjp65B2A7TYI-1">
          <mxGeometry x="20" y="170" width="320" height="120" as="geometry" />
        </mxCell>
        <mxCell id="TREJK7lmLjp65B2A7TYI-6" value="&lt;div style=&quot;background-color: rgb(255, 255, 255); font-family: Consolas, &amp;quot;Courier New&amp;quot;, monospace; font-size: 14px; line-height: 19px;&quot;&gt;&lt;div&gt;&amp;nbsp;MySqlOperator( ...&lt;/div&gt;&lt;div&gt;&amp;nbsp; &amp;nbsp;mysql_conn_id = &lt;span style=&quot;color: rgb(163, 21, 21);&quot;&gt;&#39;&lt;b&gt;conn_name&lt;/b&gt;&#39;&lt;/span&gt;&lt;/div&gt;&lt;div&gt;&amp;nbsp;)&lt;/div&gt;&lt;/div&gt;" style="rounded=0;whiteSpace=wrap;html=1;verticalAlign=top;align=left;" vertex="1" parent="TREJK7lmLjp65B2A7TYI-3">
          <mxGeometry x="35" y="40" width="250" height="70" as="geometry" />
        </mxCell>
        <mxCell id="TREJK7lmLjp65B2A7TYI-5" value="&lt;span style=&quot;color: rgb(0, 0, 0); font-family: Helvetica; font-size: 12px; font-style: normal; font-variant-ligatures: normal; font-variant-caps: normal; font-weight: 400; letter-spacing: normal; orphans: 2; text-indent: 0px; text-transform: none; widows: 2; word-spacing: 0px; -webkit-text-stroke-width: 0px; background-color: rgb(251, 251, 251); text-decoration-thickness: initial; text-decoration-style: initial; text-decoration-color: initial; float: none; display: inline !important;&quot;&gt;BackEnd Settings:&lt;/span&gt;&lt;br style=&quot;border-color: var(--border-color); color: rgb(0, 0, 0); font-family: Helvetica; font-size: 12px; font-style: normal; font-variant-ligatures: normal; font-variant-caps: normal; font-weight: 400; letter-spacing: normal; orphans: 2; text-indent: 0px; text-transform: none; widows: 2; word-spacing: 0px; -webkit-text-stroke-width: 0px; background-color: rgb(251, 251, 251); text-decoration-thickness: initial; text-decoration-style: initial; text-decoration-color: initial;&quot;&gt;&lt;br style=&quot;border-color: var(--border-color); color: rgb(0, 0, 0); font-family: Helvetica; font-size: 12px; font-style: normal; font-variant-ligatures: normal; font-variant-caps: normal; font-weight: 400; letter-spacing: normal; orphans: 2; text-indent: 0px; text-transform: none; widows: 2; word-spacing: 0px; -webkit-text-stroke-width: 0px; background-color: rgb(251, 251, 251); text-decoration-thickness: initial; text-decoration-style: initial; text-decoration-color: initial;&quot;&gt;&lt;span style=&quot;color: rgb(0, 0, 0); font-family: Helvetica; font-size: 12px; font-style: normal; font-variant-ligatures: normal; font-variant-caps: normal; font-weight: 400; letter-spacing: normal; orphans: 2; text-indent: 0px; text-transform: none; widows: 2; word-spacing: 0px; -webkit-text-stroke-width: 0px; background-color: rgb(251, 251, 251); text-decoration-thickness: initial; text-decoration-style: initial; text-decoration-color: initial; float: none; display: inline !important;&quot;&gt;secrets_backend = &lt;/span&gt;&lt;span style=&quot;color: rgb(0, 0, 0); font-family: Helvetica; font-size: 12px; font-style: normal; font-variant-ligatures: normal; font-variant-caps: normal; letter-spacing: normal; orphans: 2; text-indent: 0px; text-transform: none; widows: 2; word-spacing: 0px; -webkit-text-stroke-width: 0px; background-color: rgb(251, 251, 251); text-decoration-thickness: initial; text-decoration-style: initial; text-decoration-color: initial; float: none; display: inline !important;&quot;&gt;&lt;b&gt;AWS Secrets Manager&lt;/b&gt;&lt;/span&gt;&lt;br style=&quot;border-color: var(--border-color); color: rgb(0, 0, 0); font-family: Helvetica; font-size: 12px; font-style: normal; font-variant-ligatures: normal; font-variant-caps: normal; font-weight: 400; letter-spacing: normal; orphans: 2; text-indent: 0px; text-transform: none; widows: 2; word-spacing: 0px; -webkit-text-stroke-width: 0px; background-color: rgb(251, 251, 251); text-decoration-thickness: initial; text-decoration-style: initial; text-decoration-color: initial;&quot;&gt;&lt;span style=&quot;color: rgb(0, 0, 0); font-family: Helvetica; font-size: 12px; font-style: normal; font-variant-ligatures: normal; font-variant-caps: normal; font-weight: 400; letter-spacing: normal; orphans: 2; text-indent: 0px; text-transform: none; widows: 2; word-spacing: 0px; -webkit-text-stroke-width: 0px; background-color: rgb(251, 251, 251); text-decoration-thickness: initial; text-decoration-style: initial; text-decoration-color: initial; float: none; display: inline !important;&quot;&gt;connection_prefix = &lt;/span&gt;&lt;span style=&quot;font-family: Helvetica; font-style: normal; font-variant-ligatures: normal; font-variant-caps: normal; letter-spacing: normal; orphans: 2; text-indent: 0px; text-transform: none; widows: 2; word-spacing: 0px; -webkit-text-stroke-width: 0px; background-color: rgb(251, 251, 251); text-decoration-thickness: initial; text-decoration-style: initial; text-decoration-color: initial; float: none; display: inline !important;&quot;&gt;&lt;font size=&quot;1&quot; style=&quot;&quot; color=&quot;#006600&quot;&gt;&lt;b style=&quot;font-size: 14px;&quot;&gt;&amp;lt;&amp;lt;prefix&amp;gt;&amp;gt;&lt;/b&gt;&lt;/font&gt;&lt;/span&gt;" style="rounded=0;whiteSpace=wrap;html=1;verticalAlign=top;align=left;" vertex="1" parent="TREJK7lmLjp65B2A7TYI-1">
          <mxGeometry x="20" y="40" width="320" height="70" as="geometry" />
        </mxCell>
        <mxCell id="TREJK7lmLjp65B2A7TYI-7" value="AWS Secrets Manager" style="swimlane;" vertex="1" parent="1">
          <mxGeometry x="600" y="150" width="280" height="160" as="geometry" />
        </mxCell>
        <mxCell id="TREJK7lmLjp65B2A7TYI-8" value="Secret Name =&amp;nbsp;&lt;font style=&quot;border-color: var(--border-color);&quot; size=&quot;1&quot; color=&quot;#006600&quot;&gt;&lt;b style=&quot;border-color: var(--border-color); font-size: 14px;&quot;&gt;&amp;lt;&amp;lt;prefix&amp;gt;&amp;gt;/&lt;/b&gt;&lt;/font&gt;&lt;b style=&quot;border-color: var(--border-color); color: rgb(163, 21, 21); font-family: Consolas, &amp;quot;Courier New&amp;quot;, monospace; font-size: 14px; background-color: rgb(255, 255, 255);&quot;&gt;conn_name&lt;/b&gt;&lt;br&gt;&lt;br&gt;Contains: Host/Username/Password etc. &lt;br&gt;Format: URI or JSON&lt;br&gt;&lt;b style=&quot;border-color: var(--border-color); color: rgb(163, 21, 21); font-family: Consolas, &amp;quot;Courier New&amp;quot;, monospace; font-size: 14px; background-color: rgb(255, 255, 255);&quot;&gt;&lt;br&gt;&lt;br&gt;&lt;br&gt;&lt;/b&gt;" style="rounded=0;whiteSpace=wrap;html=1;verticalAlign=top;align=left;" vertex="1" parent="TREJK7lmLjp65B2A7TYI-7">
          <mxGeometry x="10" y="35" width="260" height="80" as="geometry" />
        </mxCell>
        <mxCell id="TREJK7lmLjp65B2A7TYI-14" value="2. Retrieves connection&lt;br&gt;details from secret named &lt;br&gt;&quot;&amp;lt;&amp;lt;prefix&amp;gt;&amp;gt;/conn_name&quot;" style="edgeStyle=orthogonalEdgeStyle;rounded=0;orthogonalLoop=1;jettySize=auto;html=1;entryX=0;entryY=0.5;entryDx=0;entryDy=0;fontColor=#0000FF;" edge="1" parent="1" source="TREJK7lmLjp65B2A7TYI-5" target="TREJK7lmLjp65B2A7TYI-8">
          <mxGeometry relative="1" as="geometry" />
        </mxCell>
      </root>
    </mxGraphModel>
  </diagram>
</mxfile>
